<svg width="261" height="423" viewBox="0 0 261 423" fill="none" xmlns="http://www.w3.org/2000/svg">
<path d="M127.156 222.935C147.807 222.935 164.548 206.194 164.548 185.543C164.548 164.892 147.807 148.151 127.156 148.151C106.504 148.151 89.7633 164.892 89.7633 185.543C89.7633 206.194 106.504 222.935 127.156 222.935Z" fill="white"/>
<path d="M36.214 276.529C35.4218 276.149 34.7463 275.563 34.2585 274.833C33.7707 274.102 33.4885 273.254 33.4415 272.377L32.8975 262.079C32.8304 260.784 33.2798 259.516 34.1471 258.552C35.0143 257.588 36.2286 257.007 37.5234 256.937L123.35 252.403C124.645 252.336 125.913 252.786 126.877 253.653C127.841 254.52 128.422 255.734 128.491 257.029L129.036 267.327C129.103 268.621 128.653 269.89 127.786 270.854C126.919 271.818 125.705 272.398 124.41 272.468L38.5835 277.003C37.7664 277.047 36.9514 276.884 36.214 276.529Z" fill="white"/>
<path d="M95.3788 276.731C94.5437 276.327 93.8403 275.695 93.35 274.907C92.8597 274.12 92.6028 273.21 92.6089 272.282L92.5072 252.894C92.5119 252.252 92.6431 251.616 92.8936 251.024C93.144 250.433 93.5086 249.896 93.9666 249.445C94.4245 248.994 94.9669 248.638 95.5626 248.397C96.1583 248.156 96.7957 248.035 97.4383 248.04L136.592 251.492C137.629 251.498 138.937 253.104 139.989 254.393C140.319 254.797 140.604 255.147 140.812 255.358C140.903 255.451 140.99 255.547 141.073 255.646C141.821 256.537 142.226 257.666 142.216 258.829L142.13 269.14C142.118 270.437 141.591 271.675 140.667 272.585C139.742 273.494 138.495 273.999 137.198 273.99L97.4893 277.213C96.7587 277.21 96.0379 277.046 95.3788 276.731Z" fill="#2F2E41"/>
<path d="M119.866 422.983H109.555C108.258 422.981 107.015 422.466 106.098 421.549C105.181 420.632 104.665 419.389 104.664 418.092V330.749C104.665 329.452 105.181 328.209 106.098 327.292C107.015 326.375 108.258 325.86 109.555 325.858H119.866C121.163 325.86 122.406 326.375 123.323 327.292C124.24 328.209 124.756 329.452 124.757 330.749V418.092C124.756 419.389 124.24 420.632 123.323 421.549C122.406 422.466 121.163 422.981 119.866 422.983Z" fill="white"/>
<path d="M147.066 422.983H136.755C135.458 422.981 134.215 422.466 133.298 421.549C132.381 420.632 131.865 419.389 131.864 418.092V330.749C131.865 329.452 132.381 328.209 133.298 327.292C134.215 326.375 135.458 325.86 136.755 325.858H147.066C148.363 325.86 149.606 326.375 150.523 327.292C151.44 328.209 151.956 329.452 151.957 330.749V418.092C151.956 419.389 151.44 420.632 150.523 421.549C149.606 422.466 148.363 422.981 147.066 422.983Z" fill="white"/>
<path d="M132.133 199.402L132.172 198.004C129.573 197.932 127.281 197.769 125.559 196.511C125.07 196.134 124.669 195.656 124.382 195.11C124.095 194.564 123.929 193.963 123.895 193.347C123.865 192.971 123.921 192.593 124.061 192.242C124.201 191.891 124.42 191.577 124.7 191.325C125.843 190.359 127.683 190.672 129.024 191.287L130.18 191.817L127.963 175.614L126.578 175.804L128.464 189.586C127.692 189.3 126.861 189.211 126.046 189.329C125.231 189.446 124.458 189.765 123.798 190.258C123.354 190.645 123.006 191.13 122.781 191.675C122.555 192.219 122.459 192.808 122.498 193.396C122.539 194.224 122.761 195.032 123.147 195.765C123.533 196.498 124.075 197.138 124.734 197.639C126.947 199.256 129.823 199.337 132.133 199.402Z" fill="#2F2E41"/>
<path d="M119.732 176.992H112.206V178.39H119.732V176.992Z" fill="#2F2E41"/>
<path d="M143.487 176.992H135.961V178.39H143.487V176.992Z" fill="#2F2E41"/>
<path d="M169.756 310.069L135.243 241.246H135.73C136.934 241.245 138.088 240.766 138.939 239.915C139.791 239.063 140.27 237.909 140.271 236.705V235.308C140.27 234.104 139.791 232.949 138.939 232.098C138.088 231.246 136.934 230.768 135.73 230.766H120.359C119.155 230.768 118.001 231.246 117.149 232.098C116.298 232.949 115.819 234.104 115.818 235.308V236.705C115.821 237.816 116.232 238.886 116.973 239.714C117.714 240.541 118.733 241.068 119.837 241.193L85.2249 310.107C83.5788 313.385 82.7986 317.029 82.9585 320.693C83.1184 324.357 84.2131 327.919 86.1384 331.04C88.0637 334.162 90.7557 336.739 93.9582 338.526C97.1607 340.314 100.767 341.252 104.435 341.252H150.51C154.182 341.252 157.793 340.313 161 338.524C164.207 336.734 166.903 334.155 168.831 331.03C170.76 327.905 171.858 324.338 172.019 320.67C172.181 317.001 171.402 313.352 169.756 310.069Z" fill="#2F2E41"/>
<path d="M128.771 256.822L206.621 220.408C207.796 219.86 209.141 219.801 210.36 220.243C211.579 220.685 212.573 221.592 213.123 222.766L217.492 232.107C218.04 233.282 218.1 234.626 217.658 235.845C217.216 237.064 216.308 238.058 215.134 238.609L137.284 275.023C136.109 275.571 134.764 275.631 133.545 275.189C132.326 274.747 131.332 273.839 130.782 272.665L126.413 263.325C126.139 262.743 125.984 262.114 125.955 261.472C125.927 260.83 126.026 260.189 126.247 259.586C126.42 259.108 126.666 258.659 126.976 258.256C127.451 257.642 128.066 257.15 128.771 256.822Z" fill="white"/>
<path d="M126.101 256.598L160.376 236.168C161.544 235.607 162.887 235.533 164.11 235.961C165.333 236.389 166.337 237.285 166.901 238.452L175.544 255.817C175.824 256.398 175.986 257.028 176.021 257.672C176.056 258.315 175.963 258.959 175.748 259.567C175.533 260.175 175.2 260.734 174.768 261.212C174.336 261.691 173.814 262.079 173.231 262.355L136.618 276.499C135.659 276.96 133.777 276.096 132.264 275.403C131.79 275.185 131.38 274.998 131.1 274.9C130.977 274.857 130.857 274.808 130.739 274.757C129.675 274.287 128.814 273.452 128.31 272.403L123.841 263.111C123.447 262.291 123.29 261.379 123.385 260.475C123.48 259.571 123.824 258.712 124.379 257.992C124.836 257.399 125.426 256.922 126.101 256.598Z" fill="#2F2E41"/>
<path d="M97.6224 166.095C97.1222 166.093 96.6429 165.894 96.2893 165.54C95.9357 165.186 95.7365 164.706 95.7352 164.206C95.7329 164.058 95.7496 163.909 95.7849 163.765L105.558 120.716C105.632 120.391 105.79 120.092 106.016 119.848C106.242 119.604 106.528 119.424 106.845 119.325C107.163 119.226 107.501 119.213 107.825 119.285C108.15 119.358 108.449 119.515 108.694 119.74L141.096 149.745C141.34 149.971 141.52 150.257 141.618 150.574C141.717 150.892 141.73 151.229 141.657 151.554C141.584 151.878 141.427 152.178 141.202 152.422C140.977 152.667 140.692 152.848 140.375 152.948L98.1905 166.009C98.0064 166.066 97.8149 166.094 97.6224 166.095Z" fill="#3F3D56"/>
<path d="M124.124 134.624L103.772 130.574L104.092 129.161L122.085 132.738L124.124 134.624Z" fill="white"/>
<path d="M140.15 149.47L101.237 141.727L101.557 140.306L138.11 147.576L140.15 149.47Z" fill="white"/>
<path d="M126.229 156.871L123.308 157.774L98.7089 152.879L99.0291 151.458L126.229 156.871Z" fill="white"/>
<path d="M221.11 166.753C224.502 166.753 227.252 164.003 227.252 160.611C227.252 157.219 224.502 154.469 221.11 154.469C217.718 154.469 214.968 157.219 214.968 160.611C214.968 164.003 217.718 166.753 221.11 166.753Z" fill="white"/>
<path d="M142.142 8.81717C144.565 8.81717 146.529 6.853 146.529 4.43007C146.529 2.00714 144.565 0.0429688 142.142 0.0429688C139.719 0.0429688 137.755 2.00714 137.755 4.43007C137.755 6.853 139.719 8.81717 142.142 8.81717Z" fill="#FF6584"/>
<path d="M46.5033 144.817C48.9262 144.817 50.8904 142.853 50.8904 140.43C50.8904 138.007 48.9262 136.043 46.5033 136.043C44.0804 136.043 42.1162 138.007 42.1162 140.43C42.1162 142.853 44.0804 144.817 46.5033 144.817Z" fill="#FF6584"/>
<path d="M200.052 129.901C202.475 129.901 204.439 127.937 204.439 125.514C204.439 123.091 202.475 121.127 200.052 121.127C197.629 121.127 195.665 123.091 195.665 125.514C195.665 127.937 197.629 129.901 200.052 129.901Z" fill="white"/>
<path d="M66.684 189.566C69.1069 189.566 71.0711 187.601 71.0711 185.179C71.0711 182.756 69.1069 180.791 66.684 180.791C64.261 180.791 62.2969 182.756 62.2969 185.179C62.2969 187.601 64.261 189.566 66.684 189.566Z" fill="white"/>
<path d="M205.316 201.85C207.739 201.85 209.703 199.885 209.703 197.462C209.703 195.04 207.739 193.075 205.316 193.075C202.893 193.075 200.929 195.04 200.929 197.462C200.929 199.885 202.893 201.85 205.316 201.85Z" fill="#E6E6E6"/>
<path d="M166.71 45.6688C169.133 45.6688 171.097 43.7046 171.097 41.2817C171.097 38.8588 169.133 36.8946 166.71 36.8946C164.287 36.8946 162.323 38.8588 162.323 41.2817C162.323 43.7046 164.287 45.6688 166.71 45.6688Z" fill="#CCCCCC"/>
<path d="M0.892114 93.9065C5.48586 94.1959 9.94562 95.5698 13.9058 97.9156C17.8661 100.261 21.214 103.512 23.6752 107.402C24.365 108.505 25.2654 109.716 24.7879 111.073C24.6215 111.594 24.2836 112.042 23.8293 112.346C23.3749 112.649 22.8311 112.79 22.2867 112.744C21.6079 112.598 20.996 112.232 20.5455 111.704C20.0949 111.176 19.8307 110.514 19.7935 109.821C19.7564 109.127 19.9484 108.441 20.3399 107.868C20.7315 107.294 21.3008 106.865 21.96 106.648C25.1461 105.289 28.3605 107.389 30.9558 109.065C36.8692 112.885 43.3735 116.339 50.5389 116.774C57.1686 117.177 64.2779 114.577 67.9655 108.828C68.6106 107.822 67.0088 106.893 66.3668 107.894C62.7097 113.595 55.3165 115.643 48.8883 114.762C45.0575 114.157 41.3585 112.902 37.9515 111.049C36.1846 110.132 34.471 109.115 32.792 108.047C31.1943 106.932 29.5009 105.961 27.7315 105.146C24.7808 103.934 20.8744 104.028 18.8133 106.819C16.8904 109.423 18.3764 113.757 21.5926 114.489C22.2981 114.628 23.0272 114.59 23.7143 114.378C24.4015 114.166 25.0253 113.787 25.5298 113.275C26.0344 112.762 26.4039 112.133 26.6052 111.442C26.8066 110.752 26.8335 110.023 26.6835 109.319C26.3626 107.786 25.2081 106.286 24.3145 105.032C21.6295 101.255 18.1313 98.1286 14.0776 95.8826C10.024 93.6367 5.51816 92.3287 0.892007 92.0551C-0.298888 91.9962 -0.295782 93.8477 0.892007 93.9064L0.892114 93.9065Z" fill="#CCCCCC"/>
<path d="M260.355 149.948C257.277 147.966 254.713 145.283 252.871 142.119C251.03 138.955 249.965 135.399 249.764 131.744C249.712 130.711 249.557 129.52 250.414 128.763C250.732 128.466 251.14 128.286 251.573 128.251C252.006 128.216 252.438 128.33 252.799 128.572C253.214 128.937 253.497 129.428 253.605 129.969C253.713 130.511 253.64 131.073 253.397 131.569C253.154 132.065 252.755 132.467 252.261 132.714C251.766 132.96 251.205 133.037 250.663 132.933C247.923 132.642 246.505 129.937 245.352 127.767C242.726 122.822 239.548 117.902 234.74 114.822C230.292 111.973 224.347 111.022 219.557 113.586C218.719 114.034 219.471 115.301 220.305 114.854C225.055 112.312 230.984 113.756 235.106 116.859C237.533 118.764 239.615 121.07 241.263 123.678C242.134 124.999 242.93 126.369 243.682 127.762C244.36 129.156 245.159 130.486 246.072 131.739C247.652 133.724 250.401 135.173 252.914 134.033C253.474 133.744 253.959 133.327 254.329 132.816C254.699 132.306 254.945 131.716 255.046 131.093C255.147 130.471 255.102 129.834 254.913 129.232C254.724 128.631 254.396 128.082 253.957 127.629C253.521 127.259 253 127.003 252.441 126.884C251.881 126.765 251.301 126.786 250.752 126.947C250.203 127.107 249.702 127.401 249.295 127.802C248.888 128.204 248.586 128.7 248.418 129.246C248.159 130.532 248.154 131.855 248.401 133.142C248.802 136.806 250.019 140.333 251.964 143.465C253.909 146.596 256.531 149.251 259.638 151.234C260.442 151.736 261.158 150.449 260.355 149.948L260.355 149.948Z" fill="#CCCCCC"/>
<path d="M108.968 28.4763C105.314 28.2462 101.767 27.1534 98.6175 25.2877C95.4678 23.4219 92.805 20.8363 90.8475 17.7428C90.2989 16.8658 89.5828 15.902 89.9626 14.8226C90.0949 14.4087 90.3637 14.0519 90.725 13.8106C91.0863 13.5692 91.5189 13.4576 91.9519 13.4939C92.4917 13.6102 92.9784 13.9008 93.3368 14.321C93.6951 14.7411 93.9052 15.2676 93.9348 15.819C93.9643 16.3705 93.8116 16.9163 93.5002 17.3724C93.1888 17.8285 92.736 18.1694 92.2116 18.3426C89.6777 19.4235 87.121 17.7531 85.0569 16.4199C80.3537 13.3821 75.1805 10.6349 69.4815 10.2887C64.2086 9.96841 58.5542 12.0359 55.6213 16.6085C55.1082 17.4085 56.3822 18.1477 56.8928 17.3517C59.8015 12.8168 65.6816 11.188 70.7943 11.889C73.8411 12.3697 76.7831 13.3686 79.4929 14.8422C80.8981 15.5715 82.261 16.3799 83.5964 17.2297C84.8671 18.1164 86.214 18.8885 87.6213 19.537C89.9682 20.5011 93.075 20.4258 94.7144 18.2062C95.0621 17.6802 95.2819 17.0801 95.3563 16.454C95.4307 15.8279 95.3575 15.193 95.1427 14.6002C94.9279 14.0074 94.5774 13.4731 94.1192 13.0399C93.6609 12.6068 93.1078 12.2869 92.5038 12.1057C91.9427 11.9951 91.3628 12.0255 90.8163 12.1941C90.2698 12.3627 89.7736 12.6643 89.3723 13.0718C88.9711 13.4793 88.6772 13.9801 88.517 14.5291C88.3569 15.0782 88.3355 15.6584 88.4548 16.2178C88.8553 17.466 89.4953 18.6241 90.339 19.6273C92.4746 22.6315 95.2568 25.1183 98.4809 26.9046C101.705 28.6909 105.289 29.7312 108.968 29.9488C109.915 29.9956 109.913 28.523 108.968 28.4763L108.968 28.4763Z" fill="#CCCCCC"/>
<path d="M112.31 75.125H107.923V89.5398H112.31V75.125Z" fill="#CCCCCC"/>
<path d="M41.3764 65.0656L44.4253 62.0167L34.4074 51.9988L31.3585 55.0477L41.3764 65.0656Z" fill="#B3B3B3"/>
<path d="M164.726 95.3586L167.775 98.4075L177.793 88.3896L174.744 85.3407L164.726 95.3586Z" fill="#B3B3B3"/>
<path d="M40.1327 219.952L43.1816 223.001L53.1995 212.983L50.1506 209.934L40.1327 219.952Z" fill="#FF6584"/>
</svg>
